<svg width="25" height="25" viewBox="0 0 25 25" fill="none" xmlns="http://www.w3.org/2000/svg">
<path d="M12.5 25C19.4036 25 25 19.4036 25 12.5C25 5.59644 19.4036 0 12.5 0C5.59644 0 0 5.59644 0 12.5C0 19.4036 5.59644 25 12.5 25Z" fill="#29A71A"/>
<path d="M18.0114 6.98864C16.7108 5.67514 14.9838 4.86962 13.1416 4.71736C11.2995 4.56511 9.4636 5.07615 7.96507 6.1583C6.46655 7.24045 5.40406 8.82248 4.96924 10.619C4.53442 12.4156 4.75591 14.3083 5.59375 15.956L4.77131 19.9489C4.76277 19.9886 4.76253 20.0297 4.7706 20.0695C4.77866 20.1094 4.79486 20.1471 4.81818 20.1804C4.85234 20.2309 4.90111 20.2698 4.95796 20.2919C5.01482 20.314 5.07705 20.3182 5.13636 20.304L9.04972 19.3764C10.6927 20.1931 12.5721 20.4003 14.3536 19.9613C16.135 19.5223 17.7029 18.4655 18.7783 16.9789C19.8537 15.4924 20.3669 13.6725 20.2264 11.8432C20.086 10.0138 19.3011 8.2936 18.0114 6.98864ZM16.7912 16.7273C15.8914 17.6246 14.7327 18.2169 13.4784 18.4208C12.2241 18.6246 10.9374 18.4298 9.79972 17.8636L9.25426 17.5938L6.85511 18.1619L6.86222 18.1321L7.35938 15.7173L7.09233 15.1903C6.51102 14.0487 6.30596 12.7523 6.50652 11.487C6.70707 10.2217 7.30296 9.05225 8.20881 8.14631C9.34703 7.00844 10.8906 6.36923 12.5 6.36923C14.1094 6.36923 15.653 7.00844 16.7912 8.14631C16.8009 8.15742 16.8113 8.16787 16.8224 8.17756C17.9466 9.31836 18.5741 10.8573 18.5682 12.4589C18.5624 14.0604 17.9236 15.5947 16.7912 16.7273Z" fill="white"/>
<path d="M16.5781 14.956C16.2841 15.419 15.8196 15.9858 15.2358 16.1264C14.2131 16.3736 12.6435 16.1349 10.6904 14.3139L10.6662 14.2926C8.94888 12.7003 8.50286 11.375 8.61081 10.3239C8.67047 9.72727 9.16763 9.1875 9.58666 8.83522C9.65291 8.77868 9.73147 8.73843 9.81606 8.71767C9.90065 8.69692 9.98892 8.69625 10.0738 8.71572C10.1587 8.73518 10.2379 8.77424 10.305 8.82977C10.3721 8.88529 10.4252 8.95575 10.4602 9.03551L11.0923 10.456C11.1334 10.5481 11.1486 10.6496 11.1364 10.7497C11.1241 10.8498 11.0848 10.9447 11.0227 11.0241L10.7031 11.4389C10.6346 11.5246 10.5932 11.6288 10.5843 11.7381C10.5755 11.8475 10.5995 11.957 10.6534 12.0525C10.8324 12.3665 11.2614 12.8281 11.7372 13.2557C12.2713 13.7386 12.8637 14.1804 13.2387 14.331C13.339 14.372 13.4493 14.382 13.5554 14.3597C13.6615 14.3374 13.7584 14.2839 13.8338 14.206L14.2046 13.8324C14.2761 13.7618 14.3651 13.7115 14.4624 13.6866C14.5597 13.6616 14.6619 13.6629 14.7585 13.6903L16.26 14.1165C16.3428 14.1419 16.4187 14.1859 16.4819 14.2451C16.5451 14.3044 16.5939 14.3773 16.6246 14.4583C16.6553 14.5393 16.6671 14.6263 16.659 14.7125C16.651 14.7988 16.6233 14.882 16.5781 14.956Z" fill="white"/>
</svg>
