<svg width="25" height="25" viewBox="0 0 25 25" fill="none" xmlns="http://www.w3.org/2000/svg">
<path d="M12.5 25C19.4036 25 25 19.4036 25 12.5C25 5.59644 19.4036 0 12.5 0C5.59644 0 0 5.59644 0 12.5C0 19.4036 5.59644 25 12.5 25Z" fill="#6F3FAA"/>
<path d="M19.7202 8.4446V8.42613C19.5525 7.74715 19.115 7.04545 18.5412 6.45454C17.8707 5.76136 17.017 5.21732 16.2017 5.04119H16.1846C13.7532 4.57528 11.2553 4.57528 8.82384 5.04119H8.8068C7.29259 5.36931 5.64913 6.9517 5.28265 8.42613V8.4446C4.83238 10.4887 4.83238 12.6064 5.28265 14.6506V14.6676C5.54401 15.7187 6.4531 16.8239 7.5014 17.4915C7.84375 17.7146 8.21641 17.8873 8.60793 18.0043V19.6491C8.60849 19.7806 8.64817 19.9089 8.72192 20.0177C8.79567 20.1265 8.90015 20.2109 9.02204 20.2602C9.14394 20.3094 9.27773 20.3212 9.40636 20.2941C9.53499 20.267 9.65263 20.2022 9.7443 20.108L11.4119 18.375C11.7727 18.3949 12.1363 18.4062 12.4971 18.4062C13.7322 18.4059 14.9645 18.2889 16.1775 18.0568H16.1946C17.7045 17.7273 19.3494 16.1449 19.7131 14.6705V14.6534C20.1661 12.6089 20.1685 10.4902 19.7202 8.4446ZM18.4006 14.3466C18.1562 15.3082 16.9091 16.5057 15.9162 16.7258C14.6265 16.9729 13.314 17.08 12.0014 17.0455C11.9886 17.0447 11.9758 17.0468 11.964 17.0517C11.9522 17.0567 11.9417 17.0642 11.9332 17.0739L10.7159 18.3239L9.42043 19.652C9.39971 19.6739 9.37289 19.6891 9.34344 19.6956C9.314 19.702 9.28328 19.6995 9.25527 19.6884C9.22726 19.6772 9.20326 19.6579 9.18636 19.6329C9.16946 19.6079 9.16045 19.5784 9.16049 19.5483V16.821C9.16052 16.7991 9.15287 16.7778 9.13885 16.761C9.12484 16.7441 9.10535 16.7327 9.08379 16.7287C8.87669 16.6795 8.67703 16.6031 8.49004 16.5014C7.64629 16.0511 6.79543 15.1278 6.59941 14.3466C6.19339 12.4988 6.19339 10.585 6.59941 8.73721C6.84231 7.77982 8.09657 6.58522 9.08237 6.36363C11.3398 5.93169 13.6587 5.93169 15.9162 6.36363C16.4631 6.48579 17.0881 6.90198 17.5767 7.41335C17.9787 7.82954 18.2869 8.30965 18.4006 8.74147C18.806 10.5879 18.806 12.5002 18.4006 14.3466Z" fill="white"/>
<path d="M15.9517 14.4886C15.7671 14.9098 15.4498 15.259 15.0483 15.4829C14.9223 15.5364 14.7915 15.5778 14.6576 15.6065C14.5056 15.5611 14.3608 15.5298 14.2315 15.4744C13.1547 15.0554 12.1524 14.466 11.2627 13.7287C10.9985 13.5033 10.7503 13.2598 10.5198 13C9.95087 12.3447 9.47306 11.6156 9.09939 10.8324C8.91757 10.4616 8.76416 10.0781 8.60791 9.69601C8.46587 9.348 8.6761 8.98578 8.89201 8.72584C9.10335 8.48476 9.3633 8.29113 9.65479 8.15766C9.75736 8.10611 9.87474 8.09209 9.98657 8.11803C10.0984 8.14398 10.1976 8.20825 10.267 8.2997C10.6299 8.70745 10.9498 9.15157 11.2216 9.62499C11.3072 9.76264 11.3365 9.92798 11.3034 10.0867C11.2703 10.2454 11.1775 10.3852 11.044 10.4773C10.973 10.527 10.902 10.5838 10.8409 10.6392C10.7807 10.6838 10.7287 10.7386 10.6875 10.8011C10.6518 10.8596 10.6302 10.9256 10.6243 10.9939C10.6184 11.0621 10.6284 11.1308 10.6534 11.1946C10.9275 11.9488 11.3437 12.5781 11.9659 13.0199C12.1764 13.1688 12.4033 13.2931 12.642 13.3906C12.7979 13.4754 12.9731 13.5185 13.1505 13.5156C13.4602 13.4787 13.5625 13.1364 13.7784 12.9602C13.8775 12.8791 14.0001 12.8321 14.1281 12.8262C14.256 12.8203 14.3825 12.8558 14.4886 12.9275C14.7187 13.0696 14.9403 13.2301 15.1619 13.3864C15.3811 13.5359 15.5921 13.6971 15.794 13.8693C15.8884 13.9379 15.9559 14.0374 15.9847 14.1505C16.0135 14.2636 16.0018 14.3832 15.9517 14.4886Z" fill="white"/>
<path d="M12.9076 7.6818H12.7258C12.7841 7.67897 12.8451 7.6818 12.9076 7.6818Z" fill="white"/>
<path d="M16.0511 11.9389C15.9091 11.9389 15.8395 11.8182 15.8295 11.6861C15.8111 11.4261 15.7969 11.1648 15.7613 10.9062C15.7 10.4701 15.548 10.0515 15.3153 9.67755C15.0761 9.28794 14.7579 8.95287 14.3811 8.694C14.0042 8.43512 13.5773 8.25821 13.1278 8.17471C12.9233 8.13778 12.7145 8.12925 12.5085 8.10795C12.3778 8.09374 12.206 8.08522 12.1775 7.92329C12.1733 7.89184 12.1758 7.85984 12.1849 7.82944C12.194 7.79904 12.2095 7.77094 12.2304 7.747C12.2512 7.72307 12.2769 7.70386 12.3058 7.69066C12.3346 7.67746 12.366 7.67057 12.3977 7.67045C12.4318 7.66849 12.4659 7.66849 12.5 7.67045C13.1209 7.6757 13.7309 7.834 14.276 8.13133C14.8211 8.42865 15.2844 8.85582 15.625 9.37499C15.8938 9.79346 16.0764 10.2614 16.1619 10.7514C16.2159 11.0582 16.2358 11.3736 16.2599 11.6861C16.2648 11.7167 16.2631 11.748 16.2549 11.7779C16.2467 11.8078 16.2323 11.8357 16.2125 11.8596C16.1928 11.8835 16.1682 11.9029 16.1404 11.9166C16.1125 11.9303 16.0821 11.9379 16.0511 11.9389Z" fill="white"/>
<path d="M15.2827 11.2756C15.2819 11.3177 15.2761 11.3597 15.2656 11.4006C15.2532 11.4416 15.2284 11.4779 15.1947 11.5044C15.161 11.5309 15.1199 11.5463 15.0771 11.5487C15.0342 11.551 14.9917 11.5401 14.9553 11.5174C14.9189 11.4947 14.8903 11.4613 14.8736 11.4219C14.8579 11.3645 14.8507 11.3052 14.8523 11.2457C14.8556 10.928 14.7927 10.6131 14.6676 10.321C14.6392 10.2585 14.6079 10.1946 14.5724 10.1335C14.3691 9.78305 14.0673 9.50003 13.7045 9.3196C13.4857 9.21626 13.2532 9.14452 13.0142 9.10653C12.9091 9.08948 12.804 9.07954 12.6988 9.06534C12.6715 9.06396 12.6447 9.05699 12.6201 9.04485C12.5956 9.03271 12.5738 9.01567 12.5561 8.99476C12.5384 8.97386 12.5251 8.94955 12.5172 8.92333C12.5093 8.89711 12.5068 8.86954 12.5099 8.84232C12.5099 8.81449 12.5158 8.78697 12.5272 8.76157C12.5386 8.73618 12.5553 8.71348 12.5761 8.69497C12.5969 8.67646 12.6213 8.66255 12.6479 8.65416C12.6744 8.64578 12.7024 8.6431 12.7301 8.6463C13.1472 8.6624 13.5558 8.76903 13.9275 8.9588C14.3815 9.18725 14.7518 9.5531 14.9858 10.0043C15.1175 10.2677 15.2058 10.5507 15.2471 10.8423C15.2548 10.8804 15.2605 10.9188 15.2642 10.9574C15.2713 11.0426 15.2741 11.1278 15.2812 11.2329C15.2812 11.2429 15.2827 11.2557 15.2827 11.2756Z" fill="white"/>
<path d="M14.3096 11.0795C14.3016 11.1156 14.283 11.1483 14.2561 11.1736C14.2293 11.199 14.1955 11.2157 14.1591 11.2216H14.1278C14.0813 11.2246 14.035 11.2124 13.9961 11.1867C13.9571 11.1611 13.9276 11.1235 13.9119 11.0795C13.9031 11.0562 13.8973 11.0319 13.8949 11.0071C13.8874 10.9115 13.8732 10.8166 13.8522 10.723C13.81 10.5336 13.7024 10.3651 13.5483 10.2472C13.4738 10.1937 13.3907 10.1533 13.3025 10.1278C13.1903 10.0952 13.0724 10.1037 12.9616 10.0767C12.9069 10.067 12.8582 10.036 12.8262 9.99046C12.7943 9.94493 12.7817 9.8886 12.7912 9.8338C12.8017 9.78131 12.8311 9.73447 12.8737 9.70205C12.9163 9.66963 12.9693 9.65385 13.0227 9.65767C13.6733 9.70454 14.1591 10.017 14.2841 10.7145C14.2969 10.7792 14.3059 10.8447 14.3111 10.9105C14.319 10.9666 14.3185 11.0236 14.3096 11.0795Z" fill="white"/>
</svg>
