<svg width="25" height="25" viewBox="0 0 25 25" fill="none" xmlns="http://www.w3.org/2000/svg">
<path d="M12.5 25C19.4036 25 25 19.4036 25 12.5C25 5.59644 19.4036 0 12.5 0C5.59644 0 0 5.59644 0 12.5C0 19.4036 5.59644 25 12.5 25Z" fill="#1C8ADB"/>
<path d="M19.3096 6.46306L19.0511 6.55681L5.01987 11.6122C4.92044 11.643 4.83402 11.7058 4.77415 11.791C4.71429 11.8761 4.68437 11.9787 4.68908 12.0827C4.69379 12.1866 4.73287 12.2861 4.80019 12.3655C4.8675 12.4449 4.95926 12.4997 5.06106 12.5213L8.69316 13.5156L9.37072 15.5043L10.0483 17.4929C10.0872 17.5904 10.1493 17.6769 10.2293 17.7449C10.3092 17.8129 10.4046 17.8604 10.507 17.8832C10.6095 17.906 10.716 17.9035 10.8172 17.8758C10.9185 17.8482 11.0114 17.7962 11.088 17.7244L12.9645 15.9517L16.6491 18.4503C17.0994 18.7571 17.7415 18.5298 17.8565 18.0241L20.2969 7.24147C20.4162 6.70738 19.8537 6.26846 19.3096 6.46306ZM17.5184 8.85653L11.179 14.0383L10.8807 14.2827C10.8151 14.3346 10.7724 14.41 10.7613 14.4929L10.6946 15.044L10.5113 16.5923C10.5129 16.6112 10.5068 16.6298 10.4946 16.6442C10.4823 16.6586 10.4648 16.6675 10.446 16.669C10.4272 16.6705 10.4085 16.6645 10.3941 16.6522C10.3797 16.64 10.3708 16.6225 10.3693 16.6037L9.85367 15.0568L9.321 13.473C9.29848 13.4018 9.30147 13.325 9.32947 13.2558C9.35747 13.1865 9.40872 13.1293 9.47441 13.0937L16.071 9.31249L17.3125 8.60227C17.4929 8.49715 17.6775 8.72585 17.5184 8.85653Z" fill="white"/>
</svg>
