<svg width="80" height="80" fill="none" xmlns="http://www.w3.org/2000/svg"><circle cx="40" cy="40" r="40" fill="#fff"/><path d="m54.37 43.922 6.953-6.953a4.521 4.521 0 0 0 1.333-3.219c0-1.216-.473-2.36-1.333-3.22L47.92 17.129a4.652 4.652 0 0 0-3.287-1.333c-1.201.011-2.33.485-3.18 1.334L15.78 42.802v.323c0 10.77 8.762 19.531 19.532 19.531h.323l8.286-8.286c.165 5.457 4.644 9.849 10.14 9.849 5.6 0 10.157-4.556 10.157-10.156 0-5.497-4.392-9.976-9.849-10.141Zm-34.815 7.832c1.385.156 3.122 1.092 4.579 2.55 1.457 1.456 2.394 3.192 2.55 4.578a18.095 18.095 0 0 1-7.129-7.128Zm15.437 9.337a17.857 17.857 0 0 1-6.736-1.443c.16-1.947-.962-4.396-3.017-6.45-2.053-2.054-4.504-3.18-6.45-3.017a17.84 17.84 0 0 1-1.441-6.736l25.21-25.21c.558-.558 1.3-.87 2.116-.877.833 0 1.578.311 2.142.876l13.401 13.401a2.97 2.97 0 0 1 .877 2.115c0 .798-.311 1.55-.876 2.115l-8.265 8.265a10.185 10.185 0 0 0-7.823 7.823l-9.138 9.138Zm19.07 1.565c-4.738 0-8.593-3.855-8.593-8.593 0-4.739 3.855-8.594 8.593-8.594 4.739 0 8.594 3.855 8.594 8.593 0 4.739-3.855 8.594-8.593 8.594Z" fill="url(#a)"/><path d="M54.063 50.156c.861 0 1.562.701 1.562 1.563h1.563c0-1.453-1-2.665-2.344-3.014V47.03H53.28v1.563h-2.343v3.125a3.128 3.128 0 0 0 3.124 3.125c.862 0 1.563.7 1.563 1.562v1.563h-1.563c-.861 0-1.562-.701-1.562-1.563h-1.563c0 1.453 1 2.665 2.344 3.014v1.674h1.563V59.53h2.343v-3.125a3.128 3.128 0 0 0-3.124-3.125c-.862 0-1.563-.7-1.563-1.562v-1.563h1.563Z" fill="url(#b)"/><path d="M57.969 53.281h1.562v1.563H57.97V53.28Z" fill="url(#c)"/><path d="M48.594 53.281h1.562v1.563h-1.562V53.28Z" fill="url(#d)"/><path d="m59.855 33.75-8.136-8.136-3.449 3.448 8.136 8.136 3.449-3.448Zm-3.449 1.239-1.239-1.239 1.24-1.24 1.238 1.24-1.239 1.239Zm-2.343-2.344-1.24-1.239 1.24-1.239 1.239 1.24-1.24 1.238Zm-2.344-4.822 1.239 1.24-1.24 1.239-1.238-1.24 1.239-1.239Z" fill="url(#e)"/><path d="M55.167 38.438 39.945 23.215l-6.532 6.532L48.633 44.97l6.533-6.532ZM39.945 25.425l13.013 13.012-4.324 4.324-13.012-13.013 4.323-4.323Z" fill="url(#f)"/><path d="m38.895 45.469 3.449 3.448 3.448-3.448-3.448-3.449-3.449 3.449Zm3.449 1.239-1.24-1.24 1.24-1.238 1.239 1.239-1.24 1.239Z" fill="url(#g)"/><path d="m29.52 54.844 3.449 3.448 8.136-8.136-3.449-3.448-8.136 8.136Zm3.449 1.239-1.24-1.24 5.927-5.926 1.24 1.24-5.927 5.926Z" fill="url(#h)"/><path d="m41.105 40.781-3.449-3.448-3.448 3.448 3.448 3.449 3.449-3.449Zm-3.449-1.239 1.24 1.24-1.24 1.238-1.239-1.239 1.24-1.239Z" fill="url(#i)"/><path d="m29.52 45.469 3.449 3.448 3.448-3.448-3.448-3.449-3.449 3.449Zm3.449 1.239-1.24-1.24 1.24-1.238 1.239 1.239-1.24 1.239Z" fill="url(#j)"/><path d="m28.281 46.708-3.448 3.448 3.448 3.449 3.449-3.449-3.449-3.448Zm-1.239 3.448 1.24-1.239 1.238 1.24-1.239 1.238-1.239-1.239Z" fill="url(#k)"/><path d="m36.417 36.094-3.448-3.449-3.449 3.449 3.449 3.448 3.448-3.448Zm-3.448-1.24 1.239 1.24-1.24 1.239-1.238-1.24 1.239-1.238Z" fill="url(#l)"/><path d="m31.73 40.781-3.449-3.448-3.448 3.448 3.448 3.449 3.449-3.449Zm-3.449-1.239 1.24 1.24-1.24 1.238-1.239-1.239 1.24-1.239Z" fill="url(#m)"/><path d="m23.594 42.02-3.449 3.449 3.449 3.448 3.448-3.448-3.448-3.449Zm-1.24 3.449 1.24-1.24 1.239 1.24-1.24 1.239-1.238-1.24Z" fill="url(#n)"/><path d="M43.906 21.25a.781.781 0 1 0 0-1.563.781.781 0 0 0 0 1.563Z" fill="url(#o)"/><path d="M46.25 23.594a.781.781 0 1 0 0-1.563.781.781 0 0 0 0 1.563Z" fill="url(#p)"/><defs><linearGradient id="a" x1="40" y1="15.795" x2="40" y2="64.219" gradientUnits="userSpaceOnUse"><stop stop-color="#DF493D"/><stop offset="1" stop-color="#EB6830"/></linearGradient><linearGradient id="b" x1="54.063" y1="47.031" x2="54.063" y2="61.094" gradientUnits="userSpaceOnUse"><stop stop-color="#DF493D"/><stop offset="1" stop-color="#EB6830"/></linearGradient><linearGradient id="c" x1="58.75" y1="53.281" x2="58.75" y2="54.844" gradientUnits="userSpaceOnUse"><stop stop-color="#DF493D"/><stop offset="1" stop-color="#EB6830"/></linearGradient><linearGradient id="d" x1="49.375" y1="53.281" x2="49.375" y2="54.844" gradientUnits="userSpaceOnUse"><stop stop-color="#DF493D"/><stop offset="1" stop-color="#EB6830"/></linearGradient><linearGradient id="e" x1="54.063" y1="25.614" x2="54.063" y2="37.198" gradientUnits="userSpaceOnUse"><stop stop-color="#DF493D"/><stop offset="1" stop-color="#EB6830"/></linearGradient><linearGradient id="f" x1="44.29" y1="23.216" x2="44.29" y2="44.97" gradientUnits="userSpaceOnUse"><stop stop-color="#DF493D"/><stop offset="1" stop-color="#EB6830"/></linearGradient><linearGradient id="g" x1="42.344" y1="42.02" x2="42.344" y2="48.917" gradientUnits="userSpaceOnUse"><stop stop-color="#DF493D"/><stop offset="1" stop-color="#EB6830"/></linearGradient><linearGradient id="h" x1="35.313" y1="46.708" x2="35.313" y2="58.292" gradientUnits="userSpaceOnUse"><stop stop-color="#DF493D"/><stop offset="1" stop-color="#EB6830"/></linearGradient><linearGradient id="i" x1="37.656" y1="37.333" x2="37.656" y2="44.23" gradientUnits="userSpaceOnUse"><stop stop-color="#DF493D"/><stop offset="1" stop-color="#EB6830"/></linearGradient><linearGradient id="j" x1="32.969" y1="42.02" x2="32.969" y2="48.917" gradientUnits="userSpaceOnUse"><stop stop-color="#DF493D"/><stop offset="1" stop-color="#EB6830"/></linearGradient><linearGradient id="k" x1="28.281" y1="46.708" x2="28.281" y2="53.605" gradientUnits="userSpaceOnUse"><stop stop-color="#DF493D"/><stop offset="1" stop-color="#EB6830"/></linearGradient><linearGradient id="l" x1="32.969" y1="32.645" x2="32.969" y2="39.542" gradientUnits="userSpaceOnUse"><stop stop-color="#DF493D"/><stop offset="1" stop-color="#EB6830"/></linearGradient><linearGradient id="m" x1="28.281" y1="37.333" x2="28.281" y2="44.23" gradientUnits="userSpaceOnUse"><stop stop-color="#DF493D"/><stop offset="1" stop-color="#EB6830"/></linearGradient><linearGradient id="n" x1="23.594" y1="42.02" x2="23.594" y2="48.917" gradientUnits="userSpaceOnUse"><stop stop-color="#DF493D"/><stop offset="1" stop-color="#EB6830"/></linearGradient><linearGradient id="o" x1="43.906" y1="19.688" x2="43.906" y2="21.25" gradientUnits="userSpaceOnUse"><stop stop-color="#DF493D"/><stop offset="1" stop-color="#EB6830"/></linearGradient><linearGradient id="p" x1="46.25" y1="22.031" x2="46.25" y2="23.594" gradientUnits="userSpaceOnUse"><stop stop-color="#DF493D"/><stop offset="1" stop-color="#EB6830"/></linearGradient></defs></svg>