<svg width="80" height="80" fill="none" xmlns="http://www.w3.org/2000/svg"><circle cx="40" cy="40" r="40" fill="#fff"/><path d="M19.135 57.74a.782.782 0 0 0 .552.229h10.157a.782.782 0 0 0 .552-.23l1.791-1.79v6.707a.781.781 0 0 0 .782.782H47.03a.781.781 0 0 0 .782-.782V55.95l1.79 1.79a.782.782 0 0 0 .553.23h10.157a.782.782 0 0 0 .552-.23l2.344-2.343a.782.782 0 0 0 .228-.552V52.5a.781.781 0 0 0-.78-.781H59.53a.781.781 0 0 0-.781-.782h-1.563a.782.782 0 0 0-.65.348l-1.129 1.694-3.884-2.59-1.77-3.098a6.994 6.994 0 0 0-4.174-3.273l-1.773-.506a4.66 4.66 0 0 0 .88-2.73v-3.907a4.028 4.028 0 0 0-2.757-3.826l-2.05-.683a3.47 3.47 0 0 0-4.568 3.291v5.124c0 .98.308 1.936.881 2.73l-1.773.507a6.994 6.994 0 0 0-4.173 3.273l-1.771 3.099-3.884 2.59-1.13-1.695a.781.781 0 0 0-.65-.347H21.25a.781.781 0 0 0-.781.78h-3.125a.781.781 0 0 0-.782.782v2.344c0 .207.083.406.23.552l2.343 2.344Zm37.271-3.441 1.2-1.799h.363v2.344h1.562V53.28h2.344v1.24l-1.886 1.885h-3.583V54.3ZM36.875 35.657a1.908 1.908 0 0 1 2.51-1.81l2.05.684a2.468 2.468 0 0 1 1.563 1.563h-6.123v-.437Zm0 2h6.25v3.124a3.125 3.125 0 1 1-6.25 0v-3.125Zm2.984 10.937h.282l1.355 6.774L40 56.864l-1.496-1.496 1.355-6.774Zm-.772-3.215c.603.12 1.223.12 1.826 0l-.66 1.652h-.505l-.661-1.652Zm-13.93 9.102 4.339-2.894a.781.781 0 0 0 .245-.262l1.862-3.26a5.439 5.439 0 0 1 3.246-2.544l2.344-.67 1.214 3.036-1.517 7.585a.782.782 0 0 0 .214.705l2.343 2.344a.782.782 0 0 0 1.105 0l2.344-2.344a.782.782 0 0 0 .214-.705l-1.517-7.585 1.214-3.036 2.344.67a5.439 5.439 0 0 1 3.246 2.545l1.862 3.26c.06.104.144.194.245.261l4.34 2.894v1.925H50.48l-2.896-2.896a.78.78 0 0 0-1.334.553v7.812h-12.5v-7.813a.78.78 0 0 0-1.334-.552l-2.896 2.896h-4.364v-1.925Zm-7.032-1.2h2.344v1.563h1.562V52.5h.363l1.2 1.799v2.107H20.01l-1.886-1.886v-1.239Z" fill="url(#a)"/><path d="M17.344 47.031h2.343v2.344a.781.781 0 0 0 .782.781h6.25a.781.781 0 0 0 .781-.781v-2.344h2.344a.781.781 0 0 0 .781-.781v-3.125a3.91 3.91 0 0 0-3.906-3.906h-6.25a3.91 3.91 0 0 0-3.907 3.906v3.125a.781.781 0 0 0 .782.781Zm8.593 1.563H21.25v-3.125a2.343 2.343 0 1 1 4.688 0v3.125Zm-7.812-5.469a2.347 2.347 0 0 1 2.344-2.344h6.25a2.347 2.347 0 0 1 2.343 2.344v2.344H27.5a3.907 3.907 0 0 0-7.813 0h-1.562v-2.344Z" fill="url(#b)"/><path d="M23.594 47.031a.781.781 0 1 0 0-1.562.781.781 0 0 0 0 1.562Z" fill="url(#c)"/><path d="M55.625 35.313a2.347 2.347 0 0 0-2.344 2.343v9.375a2.347 2.347 0 0 0 2.344 2.344h4.688a2.347 2.347 0 0 0 2.343-2.344v-9.375a2.346 2.346 0 0 0-2.343-2.343h-4.688Zm5.469 2.343v9.375a.783.783 0 0 1-.782.782h-4.687a.782.782 0 0 1-.781-.782v-9.375a.782.782 0 0 1 .781-.781h.458l.552.552a.782.782 0 0 0 .553.23h1.562a.782.782 0 0 0 .553-.23l.552-.552h.458a.782.782 0 0 1 .78.781Z" fill="url(#d)"/><path d="M22.031 37.656h9.375a2.347 2.347 0 0 0 2.344-2.343v-10.29a2.33 2.33 0 0 0-.687-1.658l-2.99-2.991a2.328 2.328 0 0 0-1.658-.686h-6.384a2.346 2.346 0 0 0-2.343 2.343v13.282a2.346 2.346 0 0 0 2.343 2.343Zm7.813-15.301 1.239 1.239h-1.24v-1.24Zm-8.594-.324a.782.782 0 0 1 .781-.781h6.25v3.125a.782.782 0 0 0 .782.781h3.125v10.157a.782.782 0 0 1-.782.78h-9.375a.782.782 0 0 1-.781-.78V22.03Z" fill="url(#e)"/><path d="M30.625 32.969h-7.813v1.562h7.813V32.97Z" fill="url(#f)"/><path d="M30.625 29.844h-4.688v1.562h4.688v-1.562Z" fill="url(#g)"/><path d="M24.375 29.844h-1.563v1.562h1.563v-1.562Z" fill="url(#h)"/><path d="M30.625 26.719h-2.344v1.562h2.344V26.72Z" fill="url(#i)"/><path d="M26.719 26.719h-3.907v1.562h3.907V26.72Z" fill="url(#j)"/><path d="M26.719 23.594h-3.907v1.562h3.907v-1.562Z" fill="url(#k)"/><path d="m56.527 18.68-1.008-1.73a.78.78 0 0 0-1.228-.159l-7.723 7.723-3.011 1.506a.778.778 0 0 0-.284.241l-.006.009-.001.001-1.84 2.545a.78.78 0 0 0-.066.807l1.066 2.133a.781.781 0 0 0 .699.431h2.642l2.91 5.819a.779.779 0 0 0 1.047.349l1.563-.781a.78.78 0 0 0 .432-.699v-3.906a.78.78 0 0 0-.083-.35l-1.141-2.283 10.032-2.866a.782.782 0 0 0 .46-1.145l-1.379-2.364.114-.076a3.056 3.056 0 0 0-3.195-5.206Zm-12.92 11.945-.638-1.277.815-1.127 1.202 2.404h-1.378Zm1.347-3.557 1.728-.864 1.645 3.29-1.728.864-1.645-3.29Zm5.202 9.324-.432.216-2.426-4.852 1.727-.864 1.131 2.261v3.24Zm-.372-7.478-1.802-3.603 6.697-6.698 4.452 7.63-9.347 2.671Zm9.524-8.341a1.492 1.492 0 0 1-.453 2.012l-.036.024-1.505-2.58a1.493 1.493 0 0 1 1.994.544Z" fill="url(#l)"/><defs><linearGradient id="a" x1="40" y1="32.188" x2="40" y2="63.438" gradientUnits="userSpaceOnUse"><stop stop-color="#DF493D"/><stop offset="1" stop-color="#EB6830"/></linearGradient><linearGradient id="b" x1="23.594" y1="39.219" x2="23.594" y2="50.156" gradientUnits="userSpaceOnUse"><stop stop-color="#DF493D"/><stop offset="1" stop-color="#EB6830"/></linearGradient><linearGradient id="c" x1="23.594" y1="45.469" x2="23.594" y2="47.031" gradientUnits="userSpaceOnUse"><stop stop-color="#DF493D"/><stop offset="1" stop-color="#EB6830"/></linearGradient><linearGradient id="d" x1="57.969" y1="35.313" x2="57.969" y2="49.375" gradientUnits="userSpaceOnUse"><stop stop-color="#DF493D"/><stop offset="1" stop-color="#EB6830"/></linearGradient><linearGradient id="e" x1="26.719" y1="19.688" x2="26.719" y2="37.656" gradientUnits="userSpaceOnUse"><stop stop-color="#DF493D"/><stop offset="1" stop-color="#EB6830"/></linearGradient><linearGradient id="f" x1="26.719" y1="32.969" x2="26.719" y2="34.531" gradientUnits="userSpaceOnUse"><stop stop-color="#DF493D"/><stop offset="1" stop-color="#EB6830"/></linearGradient><linearGradient id="g" x1="28.281" y1="29.844" x2="28.281" y2="31.406" gradientUnits="userSpaceOnUse"><stop stop-color="#DF493D"/><stop offset="1" stop-color="#EB6830"/></linearGradient><linearGradient id="h" x1="23.594" y1="29.844" x2="23.594" y2="31.406" gradientUnits="userSpaceOnUse"><stop stop-color="#DF493D"/><stop offset="1" stop-color="#EB6830"/></linearGradient><linearGradient id="i" x1="29.453" y1="26.719" x2="29.453" y2="28.281" gradientUnits="userSpaceOnUse"><stop stop-color="#DF493D"/><stop offset="1" stop-color="#EB6830"/></linearGradient><linearGradient id="j" x1="24.766" y1="26.719" x2="24.766" y2="28.281" gradientUnits="userSpaceOnUse"><stop stop-color="#DF493D"/><stop offset="1" stop-color="#EB6830"/></linearGradient><linearGradient id="k" x1="24.766" y1="23.594" x2="24.766" y2="25.156" gradientUnits="userSpaceOnUse"><stop stop-color="#DF493D"/><stop offset="1" stop-color="#EB6830"/></linearGradient><linearGradient id="l" x1="51.186" y1="16.563" x2="51.186" y2="38.438" gradientUnits="userSpaceOnUse"><stop stop-color="#DF493D"/><stop offset="1" stop-color="#EB6830"/></linearGradient></defs></svg>