<svg width="80" height="80" fill="none" xmlns="http://www.w3.org/2000/svg"><circle cx="40" cy="40" r="40" fill="#fff"/><path d="M55.066 30.358c0-8.306-6.759-15.065-15.066-15.065S24.935 22.051 24.935 30.36c0 8.307 6.758 15.065 15.065 15.065 8.307 0 15.066-6.758 15.066-15.066ZM40 43.861c-7.445 0-13.503-6.057-13.503-13.502 0-7.446 6.058-13.503 13.503-13.503 7.446 0 13.503 6.057 13.503 13.502 0 7.446-6.057 13.503-13.503 13.503Zm0-26.068c-6.929 0-12.566 5.637-12.566 12.566 0 6.928 5.637 12.565 12.566 12.565 6.929 0 12.566-5.637 12.566-12.566 0-6.928-5.637-12.565-12.566-12.565Zm6.163 21.677-.003-.004a.781.781 0 0 0-1.353.781l.004.006c-1.233.602-2.593.98-4.03 1.08v-.716a.781.781 0 0 0-1.562 0v.717a10.922 10.922 0 0 1-4.03-1.08l.004-.007a.781.781 0 0 0-1.353-.781l-.002.004a11.094 11.094 0 0 1-2.949-2.949l.004-.002a.781.781 0 0 0-.781-1.353l-.006.003a10.92 10.92 0 0 1-1.08-4.03h.716a.781.781 0 0 0 0-1.562h-.717c.101-1.436.48-2.797 1.08-4.029l.007.003a.781.781 0 1 0 .781-1.353l-.004-.002a11.094 11.094 0 0 1 2.949-2.949l.002.004a.781.781 0 1 0 1.353-.781l-.003-.006a10.923 10.923 0 0 1 4.029-1.08v.716a.781.781 0 0 0 1.563 0v-.717a10.92 10.92 0 0 1 4.029 1.081l-.004.006a.781.781 0 0 0 1.353.781l.003-.004a11.095 11.095 0 0 1 2.949 2.949l-.005.002a.781.781 0 1 0 .782 1.353l.006-.003a10.92 10.92 0 0 1 1.08 4.03h-.716a.781.781 0 1 0 0 1.562h.716a10.924 10.924 0 0 1-1.08 4.03l-.006-.004a.781.781 0 1 0-.781 1.353l.004.002a11.098 11.098 0 0 1-2.95 2.949ZM40.78 28.429v-6.295a.781.781 0 0 0-1.562 0v6.295a2.086 2.086 0 0 0-1.302 1.93c0 .097.01.193.022.287l-3.49 2.015a.781.781 0 1 0 .782 1.353L38.72 32a2.07 2.07 0 0 0 1.28.443 2.086 2.086 0 0 0 2.083-2.084c0-.872-.54-1.62-1.303-1.93Zm-.78 2.45a.521.521 0 1 1 0-1.042.521.521 0 0 1 0 1.042Zm20.795-4.948c-.882 0-1.713.345-2.34.972a3.289 3.289 0 0 0-.972 2.34v10.22a3.585 3.585 0 0 0-4.83.792l-5.957 7.748c-.899 1.17-1.258 2.504-1.067 3.967l.384 2.934-.562-.15a1.618 1.618 0 0 0-1.984 1.145l-.904 3.376c-.112.416-.054.853.162 1.228.217.375.566.644.983.755l12.665 3.394a1.619 1.619 0 0 0 1.984-1.145l.904-3.376a1.608 1.608 0 0 0-.162-1.228 1.608 1.608 0 0 0-.983-.756l-.527-.141c-.197-1.416.213-2.72 1.193-3.773l3.773-4.059c1.03-1.107 1.552-2.377 1.552-3.774V29.242a3.316 3.316 0 0 0-3.312-3.311Zm-3.05 33.753c.009.014.01.028.007.043l-.904 3.375c-.008.03-.038.043-.057.043l-.014-.002-12.665-3.394a.055.055 0 0 1-.034-.027.055.055 0 0 1-.006-.043l.904-3.376c.008-.029.038-.042.057-.042.004 0 .009 0 .013.002l1.679.45.007.002 10.98 2.942a.055.055 0 0 1 .033.027Zm4.8-13.284c0 1.004-.371 1.89-1.134 2.71l-3.773 4.06c-1.162 1.248-1.726 2.76-1.657 4.405l-8.335-2.233-.467-3.575c-.138-1.051.11-1.97.756-2.811l5.957-7.749a2.02 2.02 0 0 1 2.83-.37 2.02 2.02 0 0 1 .37 2.83l-3.182 4.14a.781.781 0 1 0 1.239.952l3.182-4.14c.591-.769.82-1.704.715-2.6V29.243c0-.464.183-.902.514-1.235.332-.331.77-.514 1.235-.514.965 0 1.75.785 1.75 1.75V46.4ZM36.531 55.9a1.623 1.623 0 0 0-1.984-1.145l-.562.15.384-2.934c.19-1.462-.168-2.797-1.067-3.967l-5.957-7.748a3.556 3.556 0 0 0-2.375-1.364 3.556 3.556 0 0 0-2.455.571v-10.22c0-.881-.345-1.712-.972-2.34a3.288 3.288 0 0 0-2.34-.971 3.316 3.316 0 0 0-3.312 3.311V46.4c0 1.397.522 2.667 1.552 3.774l3.773 4.06c.98 1.053 1.39 2.356 1.194 3.772l-.528.141a1.61 1.61 0 0 0-.982.756 1.609 1.609 0 0 0-.163 1.228l.904 3.376a1.623 1.623 0 0 0 1.984 1.145l12.665-3.394c.417-.111.766-.38.983-.755.216-.375.274-.812.162-1.228l-.904-3.376Zm-14.17-2.73-3.774-4.059c-.763-.82-1.134-1.706-1.134-2.71V29.243c0-.965.785-1.75 1.75-1.75.464 0 .903.183 1.235.515.331.332.514.77.514 1.235V42.02c-.105.895.124 1.83.716 2.6l3.181 4.139a.781.781 0 1 0 1.24-.952l-3.183-4.14a2.02 2.02 0 0 1 .37-2.83 2.005 2.005 0 0 1 1.491-.396c.538.07 1.013.342 1.34.766l5.956 7.749c.647.84.894 1.76.757 2.811l-.468 3.575-8.335 2.233c.069-1.646-.495-3.157-1.657-4.406Zm13.559 6.553a.054.054 0 0 1-.034.027l-12.665 3.394a.05.05 0 0 1-.014.002c-.019 0-.049-.014-.056-.043l-.905-3.375a.055.055 0 0 1 .006-.043.055.055 0 0 1 .034-.027l10.982-2.943h.004l1.68-.45a.05.05 0 0 1 .013-.003c.019 0 .049.013.057.042l.904 3.376a.055.055 0 0 1-.006.043Z" fill="url(#a)"/><defs><linearGradient id="a" x1="40" y1="15.293" x2="40" y2="64.707" gradientUnits="userSpaceOnUse"><stop stop-color="#DF493D"/><stop offset="1" stop-color="#EB6830"/></linearGradient></defs></svg>