<svg width="80" height="80" fill="none" xmlns="http://www.w3.org/2000/svg"><circle cx="40" cy="40" r="40" fill="#fff"/><g clip-path="url(#a)"><path d="M65 38.494c0-.937-.763-1.7-1.7-1.7H59.51v-3.709a.735.735 0 1 0-1.47 0v3.709h-1.17V18.269h1.17v11.684a.735.735 0 1 0 1.47 0V18.05c0-.69-.561-1.251-1.251-1.251h-1.608c-.69 0-1.251.561-1.251 1.251v.227H45.114a.862.862 0 0 0-.802 1.18l1.439 3.633-1.439 3.634a.862.862 0 0 0 .802 1.18h10.287v8.89h-3.789c-.937 0-1.7.763-1.7 1.7v3.057c0 .359.112.691.302.965-.19.275-.302.607-.302.966v3.057c0 .358.112.69.302.965a1.69 1.69 0 0 0-.302.965v3.057c0 .359.112.69.302.965-.19.275-.302.607-.302.965v3.058c0 .358.112.69.302.965a1.69 1.69 0 0 0-.302.965V61.5c0 .938.763 1.7 1.7 1.7H63.3c.937 0 1.7-.762 1.7-1.7v-3.057c0-.358-.112-.69-.302-.965.19-.275.302-.607.302-.965v-3.058c0-.358-.112-.69-.302-.965.19-.274.302-.606.302-.965V48.47c0-.358-.112-.69-.302-.965.19-.274.302-.607.302-.965V43.48c0-.358-.112-.69-.302-.965.19-.274.302-.606.302-.965v-3.057Zm-18.992-12.06 1.199-3.027a.862.862 0 0 0 0-.634l-1.199-3.026h9.393v6.687h-9.393Zm5.374 12.06a.23.23 0 0 1 .23-.23H63.3a.23.23 0 0 1 .23.23v3.057a.23.23 0 0 1-.23.23H51.612a.23.23 0 0 1-.23-.23v-3.057Zm12.148 4.987v3.058a.23.23 0 0 1-.23.23H51.612a.23.23 0 0 1-.23-.23V43.48a.23.23 0 0 1 .23-.23H63.3a.23.23 0 0 1 .23.23Zm0 4.988v3.057a.23.23 0 0 1-.23.23H51.612a.23.23 0 0 1-.23-.23V48.47a.23.23 0 0 1 .23-.23H63.3a.23.23 0 0 1 .23.23Zm0 4.987v3.058a.23.23 0 0 1-.23.23H51.612a.23.23 0 0 1-.23-.23v-3.058a.23.23 0 0 1 .23-.23H63.3a.23.23 0 0 1 .23.23Zm0 8.045a.23.23 0 0 1-.23.23H51.612a.23.23 0 0 1-.23-.23v-3.057a.23.23 0 0 1 .23-.23H63.3a.23.23 0 0 1 .23.23V61.5Z" fill="url(#b)"/><path d="M47.544 51.526V48.47c0-.938-.763-1.7-1.7-1.7h-2.712a.735.735 0 1 0 0 1.47h2.712a.23.23 0 0 1 .23.23v3.057a.23.23 0 0 1-.23.23H34.156a.23.23 0 0 1-.23-.23V48.47a.23.23 0 0 1 .23-.23H40a.735.735 0 1 0 0-1.47h-2.02l-1.734-6.407a1.912 1.912 0 0 0-.545-.903l-6.34-5.89v-1.684l6.132-6.312a1 1 0 0 0 .283-.7V23.47c0-.377-.208-.718-.542-.892a1 1 0 0 0-1.04.071l-5.29 3.73a3.757 3.757 0 0 0-3.748-3.914 3.757 3.757 0 0 0-3.752 3.753 3.76 3.76 0 0 0 2.645 3.585l-.011.008a2.447 2.447 0 0 0-1.036 1.998v.59l-7.154 6.15a.899.899 0 0 0-.313.682v1.205c0 .31.157.595.42.76a.896.896 0 0 0 .867.052l6.18-2.946v5.706a.13.13 0 0 1-.003.026l-1.629 7.722H16.7c-.937 0-1.7.763-1.7 1.7v3.058c0 .358.112.69.302.965a1.69 1.69 0 0 0-.302.965V61.5c0 .938.763 1.7 1.7 1.7h11.688c.937 0 1.7-.762 1.7-1.7v-3.057c0-.358-.112-.69-.302-.965a1.69 1.69 0 0 0 .302-.965v-3.058c0-.937-.763-1.7-1.7-1.7H25.27l3.873-6.642c.143-.244.218-.522.218-.805v-2.406l3.492 2.407.793 2.537c-.69.217-1.19.862-1.19 1.622v3.057c0 .359.111.69.301.965a1.69 1.69 0 0 0-.302.965v3.058c0 .358.112.69.302.965a1.69 1.69 0 0 0-.302.965V61.5c0 .938.763 1.7 1.7 1.7h11.688c.937 0 1.7-.762 1.7-1.7v-3.057c0-.358-.112-.69-.302-.965a1.69 1.69 0 0 0 .302-.965v-3.058c0-.358-.112-.69-.302-.965.19-.274.302-.606.302-.965Zm-24.67-25.308a2.285 2.285 0 0 1 2.282-2.283 2.285 2.285 0 0 1 2.283 2.283 2.285 2.285 0 0 1-2.283 2.282 2.285 2.285 0 0 1-2.282-2.282Zm22.97 27.008a.23.23 0 0 1 .23.23v3.058a.23.23 0 0 1-.23.23H34.156a.23.23 0 0 1-.23-.23v-3.058a.23.23 0 0 1 .23-.23h11.688ZM17.005 39.532v-.04l5.997-5.154v2.335l-5.997 2.86Zm11.613 21.97a.23.23 0 0 1-.23.23H16.7a.23.23 0 0 1-.23-.23v-3.058a.23.23 0 0 1 .23-.23h11.688a.23.23 0 0 1 .23.23V61.5Zm0-8.046v3.058a.23.23 0 0 1-.23.23H16.7a.23.23 0 0 1-.23-.23v-3.058a.23.23 0 0 1 .23-.23h11.688a.23.23 0 0 1 .23.23Zm-.743-9.083-4.306 7.383h-.696l1.565-7.419c.022-.108.034-.219.034-.33V31.81c0-.316.154-.614.413-.796l9.42-6.645v.317l-6.205 6.39a.735.735 0 0 0-.208.512V44.31a.127.127 0 0 1-.017.064Zm1.487-4.256v-4.541l5.339 4.96a.442.442 0 0 1 .126.21l1.63 6.023h-1.295l-.98-3.14a.735.735 0 0 0-.285-.385l-4.535-3.127ZM46.074 61.5a.23.23 0 0 1-.23.23H34.156a.23.23 0 0 1-.23-.23v-3.057a.23.23 0 0 1 .23-.23h11.688a.23.23 0 0 1 .23.23V61.5Z" fill="url(#c)"/></g><defs><linearGradient id="b" x1="54.626" y1="16.799" x2="54.626" y2="63.201" gradientUnits="userSpaceOnUse"><stop stop-color="#DF493D"/><stop offset="1" stop-color="#EB6830"/></linearGradient><linearGradient id="c" x1="31.272" y1="22.465" x2="31.272" y2="63.201" gradientUnits="userSpaceOnUse"><stop stop-color="#DF493D"/><stop offset="1" stop-color="#EB6830"/></linearGradient><clipPath id="a"><path fill="#fff" transform="translate(15 15)" d="M0 0h50v50H0z"/></clipPath></defs></svg>