<svg width="40" height="40" viewBox="0 0 40 40" fill="none" xmlns="http://www.w3.org/2000/svg">
<path d="M20 40C31.0457 40 40 31.0457 40 20C40 8.9543 31.0457 0 20 0C8.9543 0 0 8.9543 0 20C0 31.0457 8.9543 40 20 40Z" fill="#1C8ADB"/>
<path d="M30.8954 10.3408L30.4818 10.4908L8.0318 18.5795C7.87271 18.6287 7.73444 18.7293 7.63866 18.8655C7.54288 19.0017 7.495 19.1659 7.50254 19.3322C7.51008 19.4986 7.5726 19.6577 7.68031 19.7847C7.78802 19.9117 7.93482 19.9994 8.09771 20.034L13.9091 21.6249L14.9932 24.8067L16.0773 27.9885C16.1395 28.1445 16.2389 28.2829 16.3669 28.3918C16.4948 28.5006 16.6473 28.5766 16.8112 28.6131C16.9752 28.6496 17.1455 28.6455 17.3076 28.6013C17.4696 28.557 17.6183 28.4738 17.7409 28.359L20.7432 25.5226L26.6386 29.5204C27.3591 30.0113 28.3863 29.6476 28.5704 28.8385L32.475 11.5863C32.6659 10.7317 31.7659 10.0295 30.8954 10.3408ZM28.0295 14.1704L17.8863 22.4613L17.4091 22.8522C17.3042 22.9353 17.2358 23.0559 17.2182 23.1885L17.1113 24.0704L16.8182 26.5476C16.8206 26.5778 16.8109 26.6076 16.7913 26.6307C16.7717 26.6537 16.7438 26.668 16.7136 26.6704C16.6835 26.6728 16.6536 26.6631 16.6306 26.6435C16.6076 26.6239 16.5933 26.596 16.5909 26.5658L15.7659 24.0908L14.9136 21.5567C14.8776 21.4428 14.8824 21.3199 14.9272 21.2092C14.972 21.0984 15.054 21.0067 15.1591 20.9499L25.7136 14.8999L27.7 13.7636C27.9886 13.5954 28.2841 13.9613 28.0295 14.1704Z" fill="white"/>
</svg>
