<svg width="40" height="40" viewBox="0 0 40 40" fill="none" xmlns="http://www.w3.org/2000/svg">
<path d="M20 40C31.0457 40 40 31.0457 40 20C40 8.95431 31.0457 0 20 0C8.95431 0 0 8.95431 0 20C0 31.0457 8.95431 40 20 40Z" fill="url(#paint0_linear_10_748)"/>
<path d="M24.2492 8.88867H15.7603C11.9736 8.88867 8.89807 11.9642 8.89807 15.7509V24.2398C8.89807 28.0265 11.9736 31.102 15.7603 31.102H24.2492C28.0358 31.102 31.1114 28.0265 31.1114 24.2398V15.7509C31.1114 11.9642 28.0358 8.88867 24.2492 8.88867ZM28.6314 24.2487C28.6314 26.6664 26.667 28.6398 24.2403 28.6398H15.7514C13.3336 28.6398 11.3603 26.6753 11.3603 24.2487V15.7598C11.3603 13.342 13.3247 11.3687 15.7514 11.3687H24.2403C26.6581 11.3687 28.6314 13.3331 28.6314 15.7598V24.2487Z" fill="white"/>
<path d="M20.0003 14.3198C16.8714 14.3198 14.3203 16.8709 14.3203 19.9998C14.3203 23.1287 16.8714 25.6798 20.0003 25.6798C23.1292 25.6798 25.6803 23.1287 25.6803 19.9998C25.6803 16.8709 23.1292 14.3198 20.0003 14.3198ZM20.0003 23.4487C18.0981 23.4487 16.5514 21.902 16.5514 19.9998C16.5514 18.0976 18.0981 16.5509 20.0003 16.5509C21.9025 16.5509 23.4492 18.0976 23.4492 19.9998C23.4492 21.902 21.9025 23.4487 20.0003 23.4487Z" fill="white"/>
<path d="M26.113 14.9426C26.6363 14.8578 26.9917 14.3648 26.9069 13.8415C26.8221 13.3182 26.3291 12.9627 25.8058 13.0476C25.2825 13.1324 24.927 13.6254 25.0119 14.1487C25.0967 14.672 25.5897 15.0275 26.113 14.9426Z" fill="white"/>
<defs>
<linearGradient id="paint0_linear_10_748" x1="4.77147" y1="35.2285" x2="33.1937" y2="6.80631" gradientUnits="userSpaceOnUse">
<stop stop-color="#FEE411"/>
<stop offset="0.0518459" stop-color="#FEDB16"/>
<stop offset="0.1381" stop-color="#FEC125"/>
<stop offset="0.2481" stop-color="#FE983D"/>
<stop offset="0.3762" stop-color="#FE5F5E"/>
<stop offset="0.5" stop-color="#FE2181"/>
<stop offset="1" stop-color="#9000DC"/>
</linearGradient>
</defs>
</svg>
