<svg width="40" height="40" viewBox="0 0 40 40" fill="none" xmlns="http://www.w3.org/2000/svg">
<path d="M20 40C31.0457 40 40 31.0457 40 20C40 8.9543 31.0457 0 20 0C8.9543 0 0 8.9543 0 20C0 31.0457 8.9543 40 20 40Z" fill="#6F3FAA"/>
<path d="M31.5523 13.5114V13.4818C31.2841 12.3955 30.5841 11.2727 29.666 10.3273C28.5932 9.21819 27.2273 8.34774 25.9228 8.06592H25.8955C22.0051 7.32047 18.0086 7.32047 14.1182 8.06592H14.091C11.6682 8.59092 9.03868 11.1227 8.45231 13.4818V13.5114C7.73188 16.782 7.73188 20.1703 8.45231 23.4409V23.4682C8.87049 25.15 10.325 26.9182 12.0023 27.9864C12.5501 28.3433 13.1463 28.6197 13.7728 28.8068V31.4387C13.7737 31.649 13.8371 31.8543 13.9551 32.0284C14.0731 32.2025 14.2403 32.3375 14.4353 32.4163C14.6304 32.495 14.8444 32.5139 15.0502 32.4705C15.256 32.4272 15.4443 32.3235 15.591 32.1728L18.2591 29.4C18.8364 29.4318 19.4182 29.45 19.9955 29.45C21.9716 29.4494 23.9432 29.2622 25.8841 28.8909H25.9114C28.3273 28.3637 30.9591 25.8318 31.541 23.4727V23.4455C32.2658 20.1742 32.2697 16.7843 31.5523 13.5114ZM29.441 22.9546C29.05 24.4932 27.0546 26.4091 25.466 26.7614C23.4025 27.1567 21.3025 27.3281 19.2023 27.2727C19.1819 27.2715 19.1614 27.2749 19.1425 27.2828C19.1236 27.2907 19.1067 27.3028 19.0932 27.3182L17.1455 29.3182L15.0728 31.4432C15.0396 31.4783 14.9967 31.5025 14.9496 31.5129C14.9025 31.5233 14.8533 31.5193 14.8085 31.5014C14.7637 31.4835 14.7253 31.4526 14.6982 31.4127C14.6712 31.3727 14.6568 31.3255 14.6569 31.2773V26.9137C14.6569 26.8786 14.6447 26.8446 14.6222 26.8176C14.5998 26.7906 14.5686 26.7723 14.5341 26.7659C14.2028 26.6873 13.8833 26.565 13.5841 26.4023C12.2341 25.6818 10.8728 24.2046 10.5591 22.9546C9.90949 19.9982 9.90949 16.936 10.5591 13.9796C10.9478 12.4477 12.9546 10.5364 14.5319 10.1818C18.1438 9.49073 21.854 9.49073 25.466 10.1818C26.341 10.3773 27.341 11.0432 28.1228 11.8614C28.766 12.5273 29.2591 13.2955 29.441 13.9864C30.0896 16.9406 30.0896 20.0004 29.441 22.9546Z" fill="white"/>
<path d="M25.5227 23.1818C25.2275 23.8556 24.7198 24.4144 24.0773 24.7727C23.8757 24.8583 23.6664 24.9245 23.4523 24.9704C23.2091 24.8977 22.9773 24.8477 22.7705 24.7591C21.0476 24.0887 19.4438 23.1456 18.0205 21.9659C17.5977 21.6053 17.2005 21.2157 16.8318 20.8C15.9215 19.7516 15.157 18.585 14.5591 17.3318C14.2682 16.7386 14.0227 16.125 13.7727 15.5136C13.5455 14.9568 13.8818 14.3773 14.2273 13.9613C14.5654 13.5756 14.9814 13.2658 15.4477 13.0522C15.6119 12.9698 15.7997 12.9473 15.9786 12.9889C16.1575 13.0304 16.3163 13.1332 16.4273 13.2795C17.008 13.9319 17.5198 14.6425 17.9546 15.4C18.0915 15.6202 18.1384 15.8848 18.0855 16.1387C18.0326 16.3926 17.884 16.6164 17.6705 16.7636C17.5568 16.8432 17.4432 16.9341 17.3455 17.0227C17.2491 17.0941 17.1661 17.1817 17.1 17.2818C17.043 17.3754 17.0085 17.481 16.999 17.5902C16.9895 17.6994 17.0054 17.8093 17.0455 17.9113C17.4841 19.1182 18.15 20.125 19.1455 20.8318C19.4824 21.07 19.8453 21.269 20.2273 21.425C20.4767 21.5606 20.757 21.6295 21.0409 21.625C21.5364 21.5659 21.7 21.0182 22.0455 20.7363C22.204 20.6065 22.4003 20.5313 22.605 20.5219C22.8097 20.5125 23.012 20.5693 23.1818 20.6841C23.55 20.9113 23.9046 21.1682 24.2591 21.4182C24.6098 21.6575 24.9474 21.9154 25.2705 22.1909C25.4216 22.3006 25.5295 22.4598 25.5756 22.6408C25.6217 22.8218 25.603 23.0132 25.5227 23.1818Z" fill="white"/>
<path d="M20.6523 12.2908H20.3615C20.4546 12.2863 20.5524 12.2908 20.6523 12.2908Z" fill="white"/>
<path d="M25.6819 19.1022C25.4546 19.1022 25.3433 18.909 25.3273 18.6976C25.2978 18.2817 25.2751 17.8635 25.2183 17.4499C25.12 16.752 24.877 16.0824 24.5046 15.484C24.1219 14.8606 23.6127 14.3245 23.0098 13.9103C22.4069 13.4961 21.7238 13.213 21.0046 13.0794C20.6773 13.0203 20.3433 13.0067 20.0137 12.9726C19.8046 12.9499 19.5296 12.9363 19.4842 12.6772C19.4774 12.6268 19.4814 12.5757 19.496 12.527C19.5105 12.4784 19.5353 12.4334 19.5687 12.3951C19.602 12.3568 19.6432 12.3261 19.6893 12.305C19.7355 12.2838 19.7857 12.2728 19.8364 12.2726C19.8909 12.2695 19.9456 12.2695 20.0001 12.2726C20.9935 12.281 21.9695 12.5343 22.8417 13.01C23.7138 13.4857 24.4552 14.1692 25.0001 14.9999C25.4302 15.6694 25.7223 16.4182 25.8592 17.2022C25.9455 17.6931 25.9773 18.1976 26.016 18.6976C26.0237 18.7466 26.021 18.7967 26.0079 18.8446C25.9949 18.8924 25.9718 18.937 25.9402 18.9752C25.9086 19.0135 25.8692 19.0446 25.8247 19.0665C25.7801 19.0884 25.7315 19.1005 25.6819 19.1022Z" fill="white"/>
<path d="M24.4523 18.0409C24.451 18.1084 24.4418 18.1756 24.425 18.2409C24.4052 18.3067 24.3655 18.3647 24.3116 18.4071C24.2576 18.4495 24.1919 18.4742 24.1233 18.4779C24.0548 18.4816 23.9868 18.4642 23.9285 18.4279C23.8702 18.3916 23.8246 18.3382 23.7977 18.275C23.7727 18.1833 23.7612 18.0883 23.7636 17.9932C23.7689 17.4849 23.6683 16.981 23.4682 16.5137C23.4227 16.4137 23.3727 16.3114 23.3159 16.2137C22.9906 15.6529 22.5077 15.2001 21.9273 14.9114C21.5771 14.7461 21.2052 14.6313 20.8227 14.5705C20.6545 14.5432 20.4864 14.5273 20.3182 14.5046C20.2744 14.5024 20.2315 14.4912 20.1923 14.4718C20.153 14.4524 20.1181 14.4251 20.0897 14.3917C20.0614 14.3582 20.0402 14.3193 20.0275 14.2774C20.0148 14.2354 20.0109 14.1913 20.0159 14.1478C20.0159 14.1032 20.0254 14.0592 20.0436 14.0186C20.0619 13.9779 20.0885 13.9416 20.1218 13.912C20.155 13.8824 20.1942 13.8601 20.2366 13.8467C20.2791 13.8333 20.3239 13.829 20.3682 13.8341C21.0355 13.8599 21.6893 14.0305 22.2841 14.3341C23.0104 14.6996 23.603 15.285 23.9773 16.0069C24.1881 16.4283 24.3293 16.8812 24.3955 17.3478C24.4077 17.4086 24.4168 17.4701 24.4227 17.5319C24.4341 17.6682 24.4386 17.8046 24.45 17.9728C24.45 17.9887 24.4523 18.0091 24.4523 18.0409Z" fill="white"/>
<path d="M22.8955 17.7273C22.8827 17.7849 22.8529 17.8374 22.8099 17.8779C22.767 17.9184 22.7129 17.9451 22.6546 17.9546H22.6046C22.5302 17.9594 22.4562 17.9398 22.3938 17.8988C22.3315 17.8578 22.2842 17.7976 22.2592 17.7273C22.245 17.69 22.2359 17.6511 22.2319 17.6114C22.22 17.4585 22.1972 17.3066 22.1637 17.1569C22.0962 16.8538 21.924 16.5842 21.6774 16.3955C21.5581 16.3099 21.4252 16.2453 21.2842 16.2046C21.1046 16.1523 20.916 16.166 20.7387 16.1228C20.6511 16.1072 20.5732 16.0576 20.5221 15.9848C20.471 15.9119 20.4508 15.8218 20.466 15.7341C20.4829 15.6501 20.5299 15.5752 20.5981 15.5233C20.6662 15.4715 20.751 15.4462 20.8365 15.4523C21.8774 15.5273 22.6546 16.0273 22.8546 17.1432C22.8752 17.2468 22.8896 17.3516 22.8978 17.4569C22.9105 17.5466 22.9098 17.6378 22.8955 17.7273Z" fill="white"/>
</svg>
