<svg width="28" height="20" viewBox="0 0 28 20" fill="none" xmlns="http://www.w3.org/2000/svg">
<path d="M26.9172 9.3372L18.4128 0.832859C18.2799 0.706554 18.1133 0.621506 17.933 0.588022C17.7527 0.554539 17.5666 0.574058 17.3973 0.644213C17.2279 0.714367 17.0825 0.832146 16.9787 0.983275C16.8749 1.1344 16.8172 1.31239 16.8125 1.49567V5.31251H1.8125C1.56386 5.31251 1.3254 5.41129 1.14959 5.5871C0.973772 5.76292 0.875 6.00137 0.875 6.25001V13.75C0.875 13.9987 0.973772 14.2371 1.14959 14.4129C1.3254 14.5887 1.56386 14.6875 1.8125 14.6875H16.8125V18.5044C16.9255 19.1154 17.238 19.4279 17.75 19.4419C17.8731 19.4419 17.995 19.4176 18.1088 19.3705C18.2225 19.3234 18.3258 19.2543 18.4128 19.1672L26.9172 10.6628C27.0929 10.487 27.1916 10.2486 27.1916 10C27.1916 9.75142 27.0929 9.51301 26.9172 9.3372Z" fill="#FF3C38"/>
</svg>
