<svg width="17" height="13" viewBox="0 0 17 13" fill="none" xmlns="http://www.w3.org/2000/svg">
<path d="M15.3096 0.463065L15.0511 0.556815L1.01987 5.61221C0.920436 5.64296 0.834015 5.70583 0.774153 5.79097C0.71429 5.87611 0.68437 5.9787 0.689081 6.08268C0.693792 6.18665 0.732869 6.28612 0.800186 6.3655C0.867503 6.44487 0.959256 6.49967 1.06106 6.5213L4.69316 7.51562L5.37072 9.50425L6.04828 11.4929C6.0872 11.5904 6.14933 11.6769 6.22928 11.7449C6.30922 11.8129 6.40456 11.8604 6.50702 11.8832C6.60948 11.906 6.71596 11.9035 6.81722 11.8758C6.91847 11.8482 7.01144 11.7962 7.08805 11.7244L8.96447 9.9517L12.6491 12.4503C13.0994 12.7571 13.7415 12.5298 13.8565 12.0241L16.2969 1.24147C16.4162 0.707383 15.8537 0.268463 15.3096 0.463065V0.463065ZM13.5184 2.85653L7.17896 8.03835L6.88066 8.28266C6.81513 8.33462 6.77235 8.40999 6.76134 8.49289L6.69458 9.04403L6.51134 10.5923C6.51285 10.6112 6.50681 10.6298 6.49456 10.6442C6.48231 10.6586 6.46484 10.6675 6.446 10.669C6.42717 10.6705 6.4085 10.6645 6.39412 10.6522C6.37973 10.64 6.37081 10.6225 6.3693 10.6037L5.85367 9.05681L5.321 7.473C5.29848 7.40181 5.30147 7.32499 5.32947 7.25577C5.35747 7.18655 5.40872 7.12925 5.47441 7.09374L12.071 3.3125L13.3125 2.60227C13.4929 2.49715 13.6775 2.72585 13.5184 2.85653V2.85653Z" fill="white"/>
</svg>
