<svg width="41" height="41" viewBox="0 0 41 41" fill="none" xmlns="http://www.w3.org/2000/svg">
<circle cx="20.5" cy="20.5" r="20.5" fill="#EE2E24"/>
<path d="M29.1789 24.5446C29.1278 24.5041 25.4172 21.8294 24.3987 22.0214C23.9125 22.1074 23.6345 22.439 23.0767 23.1029C22.9869 23.2101 22.7712 23.4669 22.6036 23.6495C22.251 23.5345 21.9071 23.3945 21.5745 23.2306C19.8576 22.3948 18.4704 21.0076 17.6345 19.2907C17.4705 18.9581 17.3306 18.6142 17.2157 18.2616C17.3989 18.0933 17.6557 17.8776 17.7654 17.7854C18.4261 17.2306 18.7584 16.9526 18.8444 16.4652C19.0208 15.4555 16.348 11.7193 16.32 11.6857C16.1987 11.5124 16.0405 11.3683 15.8567 11.2637C15.6729 11.1592 15.4681 11.0968 15.2572 11.0811C14.1739 11.0811 11.0811 15.0933 11.0811 15.769C11.0811 15.8082 11.1378 19.7999 16.0601 24.807C21.0621 29.7237 25.0532 29.7804 25.0925 29.7804C25.7688 29.7804 29.7804 26.6875 29.7804 25.6042C29.7648 25.3941 29.7028 25.19 29.5988 25.0067C29.4948 24.8235 29.3513 24.6656 29.1789 24.5446Z" fill="white"/>
</svg>
