<svg width="17" height="17" viewBox="0 0 17 17" fill="none" xmlns="http://www.w3.org/2000/svg">
<path d="M15.9669 12.3123C15.9233 12.2777 12.7608 9.99815 11.8927 10.1618C11.4784 10.2351 11.2414 10.5177 10.766 11.0835C10.6895 11.1749 10.5056 11.3937 10.3627 11.5494C10.0623 11.4514 9.76915 11.3321 9.48565 11.1924C8.02233 10.48 6.84002 9.29769 6.12761 7.83437C5.98782 7.55091 5.86852 7.25779 5.77062 6.95728C5.9268 6.81384 6.14568 6.63003 6.23918 6.5514C6.8023 6.07859 7.08546 5.84165 7.15877 5.42622C7.30911 4.56559 5.03112 1.38128 5.00721 1.35259C4.90385 1.20494 4.76897 1.08211 4.61232 0.992991C4.45566 0.903869 4.28116 0.850683 4.10143 0.83728C3.17812 0.83728 0.542053 4.25694 0.542053 4.83281C0.542053 4.86628 0.590397 8.2684 4.78568 12.5359C9.04896 16.7264 12.4506 16.7748 12.484 16.7748C13.0604 16.7748 16.4796 14.1387 16.4796 13.2154C16.4663 13.0363 16.4134 12.8624 16.3248 12.7062C16.2361 12.55 16.1139 12.4155 15.9669 12.3123Z" fill="#DF493D"/>
</svg>
